<?xml version="1.0" standalone="no"?>
<!DOCTYPE svg PUBLIC "-//W3C//DTD SVG 20010904//EN"
 "http://www.w3.org/TR/2001/REC-SVG-20010904/DTD/svg10.dtd">
<svg version="1.0" xmlns="http://www.w3.org/2000/svg"
 width="1024.000000pt" height="1024.000000pt" viewBox="0 0 1024.000000 1024.000000"
 preserveAspectRatio="xMidYMid meet">

<g transform="translate(0.000000,1024.000000) scale(0.100000,-0.100000)"
fill="#000000" stroke="none">
<path d="M4875 10234 c-320 -23 -524 -48 -735 -90 -882 -175 -1694 -570 -2367
-1152 -161 -140 -420 -400 -553 -556 -892 -1048 -1326 -2431 -1195 -3801 102
-1061 527 -2055 1223 -2862 120 -139 479 -499 488 -490 3 3 52 159 109 348
251 836 386 1282 417 1378 14 45 21 51 373 334 337 270 602 490 780 646 125
110 445 429 445 444 0 32 -874 -545 -1404 -927 -43 -31 -80 -55 -82 -54 -1 2
46 188 106 413 59 226 134 509 165 630 113 436 203 694 330 950 272 550 676
941 1175 1139 63 25 137 51 163 58 34 9 49 18 52 33 2 11 9 52 16 90 68 399
307 824 589 1048 l35 28 -125 -6 c-229 -12 -413 22 -550 102 -62 37 -210 166
-200 176 3 3 28 1 55 -3 84 -15 376 -11 502 5 65 9 228 38 363 65 395 78 444
84 710 84 196 0 254 -4 350 -22 212 -39 390 -103 503 -181 60 -41 134 -116
169 -170 l28 -44 -50 -29 c-28 -16 -50 -32 -50 -37 0 -5 -22 -32 -50 -60 -56
-58 -64 -91 -29 -135 42 -54 124 -18 136 59 7 49 16 61 64 86 84 42 198 11
287 -78 158 -158 159 -416 4 -576 -26 -27 -55 -53 -64 -58 -15 -8 -16 -3 -11
45 8 73 -3 119 -34 156 -55 66 -154 92 -265 70 -90 -17 -295 -127 -275 -147 4
-3 -7 -24 -22 -47 -84 -122 -115 -223 -115 -371 0 -175 29 -252 159 -420 290
-376 416 -725 416 -1155 -1 -366 -89 -706 -291 -1110 -259 -522 -699 -1078
-1480 -1873 -113 -115 -240 -247 -284 -293 -43 -46 -82 -84 -86 -84 -8 0 -77
177 -115 295 -75 234 -143 584 -169 861 l-4 51 145 144 c303 300 456 480 696
819 181 256 290 436 420 695 218 436 337 813 337 1067 0 375 -223 728 -557
880 -37 17 -79 34 -93 38 -14 4 -34 11 -45 15 -11 5 12 -15 51 -43 315 -225
463 -530 427 -884 -34 -329 -218 -701 -581 -1178 -410 -537 -968 -1076 -2297
-2220 -348 -299 -809 -694 -930 -795 -180 -152 -300 -258 -300 -265 0 -22 350
-293 532 -413 648 -427 1375 -703 2123 -806 272 -37 402 -45 710 -45 376 0
652 25 980 90 882 175 1694 570 2367 1152 161 140 420 400 553 556 892 1048
1326 2431 1195 3801 -100 1044 -519 2036 -1195 2831 -133 156 -392 416 -553
556 -802 694 -1777 1111 -2857 1223 -137 15 -627 27 -735 19z m825 -1098 c796
-96 1495 -391 2110 -893 233 -190 539 -525 734 -802 380 -541 636 -1214 723
-1896 27 -216 24 -684 -5 -905 -87 -651 -282 -1194 -610 -1700 -443 -685
-1050 -1192 -1827 -1528 -555 -240 -1213 -360 -1772 -324 -510 34 -927 133
-1388 332 -189 81 -475 237 -475 259 0 7 243 224 306 274 22 17 26 16 166 -57
772 -402 1685 -490 2543 -247 1001 284 1814 953 2275 1871 168 334 276 691
341 1120 29 191 37 609 15 810 -48 456 -170 879 -363 1265 -317 635 -810 1177
-1383 1519 -436 260 -900 414 -1445 478 -162 19 -626 16 -790 -5 -291 -38
-528 -91 -760 -170 -584 -199 -1090 -520 -1487 -945 -611 -653 -948 -1443
-987 -2314 -21 -477 35 -908 173 -1329 88 -269 128 -370 236 -586 l46 -92 -88
-218 c-48 -120 -90 -224 -93 -231 -6 -16 -65 71 -178 258 -199 332 -358 747
-456 1190 -107 484 -112 1059 -15 1565 124 644 369 1197 752 1705 414 548 872
919 1508 1222 446 213 892 334 1429 388 136 13 607 5 765 -14z m1306 -3051
c120 -19 211 -48 315 -100 112 -55 166 -93 256 -178 297 -282 388 -745 237
-1197 -135 -405 -473 -856 -1000 -1337 -359 -328 -587 -501 -914 -695 -106
-62 -111 -64 -65 -25 27 23 79 69 115 102 36 33 135 123 219 200 215 196 482
481 670 713 267 332 452 634 567 928 246 630 39 1264 -507 1554 l-94 50 55 0
c30 0 96 -7 146 -15z"/>
<path d="M5522 7920 c-68 -10 -126 -20 -129 -23 -10 -11 243 -77 350 -93 46
-6 47 -7 47 -41 0 -73 21 -125 74 -179 50 -51 121 -84 181 -84 56 0 131 33
176 79 80 79 88 161 26 243 -68 88 -178 118 -432 117 -104 -1 -218 -8 -293
-19z"/>
<path d="M4990 4938 c-174 -120 -533 -397 -804 -622 -384 -317 -519 -432 -976
-829 -353 -305 -403 -350 -485 -430 -69 -68 -74 -75 -35 -50 25 16 101 63 170
103 264 155 785 516 1064 738 305 242 620 536 845 787 172 192 303 346 299
350 -2 3 -37 -19 -78 -47z"/>
</g>
</svg>
